<svg width="28" height="28" viewBox="0 0 28 28" fill="none" xmlns="http://www.w3.org/2000/svg">
<g clip-path="url(#clip0_1891_579)">
<path d="M5.75053 5.74993C1.19442 10.3061 1.19442 17.693 5.75053 22.2491C10.3067 26.8052 17.6936 26.8052 22.2497 22.2491C26.8058 17.693 26.8058 10.3061 22.2497 5.74993C17.6936 1.19382 10.3067 1.19382 5.75053 5.74993Z" fill="white"/>
<path d="M17.2999 17.2993V10.6997H10.7003" fill="white"/>
<path d="M17.2999 17.2993V10.6997M17.2999 10.6997H10.7003M17.2999 10.6997L10.7003 17.2993M5.75053 22.2491C1.19442 17.693 1.19442 10.3061 5.75053 5.74993C10.3067 1.19382 17.6936 1.19382 22.2497 5.74993C26.8058 10.3061 26.8058 17.693 22.2497 22.2491C17.6936 26.8052 10.3067 26.8052 5.75053 22.2491Z" stroke="#535353" stroke-width="1.5" stroke-linecap="round" stroke-linejoin="round"/>
</g>
<defs>
<clipPath id="clip0_1891_579">
<rect width="28" height="28" fill="white"/>
</clipPath>
</defs>
</svg>
