<svg width="20" height="20" viewBox="0 0 20 20" fill="none" xmlns="http://www.w3.org/2000/svg">
<path d="M0 2.60875C0 1.91687 0.263392 1.25332 0.732233 0.764086C1.20107 0.27485 1.83696 0 2.5 0L17.5 0C18.163 0 18.7989 0.27485 19.2678 0.764086C19.7366 1.25332 20 1.91687 20 2.60875V13.0438C20 13.7356 19.7366 14.3992 19.2678 14.8884C18.7989 15.3777 18.163 15.6525 17.5 15.6525H14.375C14.1809 15.6525 13.9896 15.6997 13.816 15.7902C13.6424 15.8808 13.4914 16.0123 13.375 16.1743L11 19.4782C10.8836 19.6402 10.7326 19.7717 10.559 19.8623C10.3854 19.9529 10.1941 20 10 20C9.80594 20 9.61455 19.9529 9.44098 19.8623C9.26741 19.7717 9.11643 19.6402 9 19.4782L6.625 16.1743C6.50857 16.0123 6.35759 15.8808 6.18402 15.7902C6.01045 15.6997 5.81906 15.6525 5.625 15.6525H2.5C1.83696 15.6525 1.20107 15.3777 0.732233 14.8884C0.263392 14.3992 0 13.7356 0 13.0438V2.60875ZM4.375 3.91313C4.20924 3.91313 4.05027 3.98184 3.93306 4.10415C3.81585 4.22646 3.75 4.39235 3.75 4.56532C3.75 4.73829 3.81585 4.90417 3.93306 5.02648C4.05027 5.14879 4.20924 5.2175 4.375 5.2175H15.625C15.7908 5.2175 15.9497 5.14879 16.0669 5.02648C16.1842 4.90417 16.25 4.73829 16.25 4.56532C16.25 4.39235 16.1842 4.22646 16.0669 4.10415C15.9497 3.98184 15.7908 3.91313 15.625 3.91313H4.375ZM4.375 7.17407C4.20924 7.17407 4.05027 7.24278 3.93306 7.36509C3.81585 7.4874 3.75 7.65329 3.75 7.82626C3.75 7.99923 3.81585 8.16511 3.93306 8.28742C4.05027 8.40973 4.20924 8.47844 4.375 8.47844H15.625C15.7908 8.47844 15.9497 8.40973 16.0669 8.28742C16.1842 8.16511 16.25 7.99923 16.25 7.82626C16.25 7.65329 16.1842 7.4874 16.0669 7.36509C15.9497 7.24278 15.7908 7.17407 15.625 7.17407H4.375ZM4.375 10.435C4.20924 10.435 4.05027 10.5037 3.93306 10.626C3.81585 10.7483 3.75 10.9142 3.75 11.0872C3.75 11.2602 3.81585 11.4261 3.93306 11.5484C4.05027 11.6707 4.20924 11.7394 4.375 11.7394H10.625C10.7908 11.7394 10.9497 11.6707 11.0669 11.5484C11.1842 11.4261 11.25 11.2602 11.25 11.0872C11.25 10.9142 11.1842 10.7483 11.0669 10.626C10.9497 10.5037 10.7908 10.435 10.625 10.435H4.375Z" fill="#757575"/>
</svg>
