<svg width="30" height="32" viewBox="0 0 30 32" fill="none" xmlns="http://www.w3.org/2000/svg">
<path d="M19.6285 27.3675C19.6285 29.3737 18.0022 31 15.996 31C13.9898 31 12.3635 29.3737 12.3635 27.3675C12.3635 25.3613 13.9898 23.7349 15.996 23.7349C18.0022 23.7349 19.6285 25.3613 19.6285 27.3675ZM19.6285 27.3675H20.7183C23.1257 27.3675 25.0774 25.4158 25.0774 23.0084V23.0084M25.0774 23.0084V23.0084C24.208 23.0084 23.5033 22.3037 23.5033 21.4343V15.6222C23.5033 14.6191 24.3164 13.806 25.3195 13.806V13.806M25.0774 23.0084V23.0084C26.9498 23.0084 28.4677 21.4905 28.4677 19.618V16.9542C28.4677 15.2155 27.0582 13.806 25.3195 13.806V13.806M25.3195 13.806C28.4677 -0.239852 4.61404 -6.05191 5.09838 13.806M5.09838 13.806V13.806C6.03461 13.806 6.79357 14.5649 6.79357 15.5012V21.4436C6.79357 22.3078 6.09299 23.0084 5.22878 23.0084V23.0084C3.28431 23.0084 1.70801 21.4321 1.70801 19.4876V17.1963C1.70801 15.3239 3.22593 13.806 5.09838 13.806V13.806Z" stroke="#332A64" stroke-width="2"/>
</svg>
