<svg width="21" height="20" viewBox="0 0 21 20" fill="none" xmlns="http://www.w3.org/2000/svg">
<path d="M10.3327 10.8327C10.7929 10.8327 11.166 10.4596 11.166 9.99935C11.166 9.53911 10.7929 9.16602 10.3327 9.16602C9.87244 9.16602 9.49935 9.53911 9.49935 9.99935C9.49935 10.4596 9.87244 10.8327 10.3327 10.8327Z" fill="#757575"/>
<path d="M16.166 10.8327C16.6263 10.8327 16.9993 10.4596 16.9993 9.99935C16.9993 9.53911 16.6263 9.16602 16.166 9.16602C15.7058 9.16602 15.3327 9.53911 15.3327 9.99935C15.3327 10.4596 15.7058 10.8327 16.166 10.8327Z" fill="#757575"/>
<path d="M4.49935 10.8327C4.95959 10.8327 5.33268 10.4596 5.33268 9.99935C5.33268 9.53911 4.95959 9.16602 4.49935 9.16602C4.03911 9.16602 3.66602 9.53911 3.66602 9.99935C3.66602 10.4596 4.03911 10.8327 4.49935 10.8327Z" fill="#757575"/>
<path d="M10.3327 10.8327C10.7929 10.8327 11.166 10.4596 11.166 9.99935C11.166 9.53911 10.7929 9.16602 10.3327 9.16602C9.87244 9.16602 9.49935 9.53911 9.49935 9.99935C9.49935 10.4596 9.87244 10.8327 10.3327 10.8327Z" stroke="#757575" stroke-width="3" stroke-linecap="round" stroke-linejoin="round"/>
<path d="M16.166 10.8327C16.6263 10.8327 16.9993 10.4596 16.9993 9.99935C16.9993 9.53911 16.6263 9.16602 16.166 9.16602C15.7058 9.16602 15.3327 9.53911 15.3327 9.99935C15.3327 10.4596 15.7058 10.8327 16.166 10.8327Z" stroke="#757575" stroke-width="3" stroke-linecap="round" stroke-linejoin="round"/>
<path d="M4.49935 10.8327C4.95959 10.8327 5.33268 10.4596 5.33268 9.99935C5.33268 9.53911 4.95959 9.16602 4.49935 9.16602C4.03911 9.16602 3.66602 9.53911 3.66602 9.99935C3.66602 10.4596 4.03911 10.8327 4.49935 10.8327Z" stroke="#757575" stroke-width="3" stroke-linecap="round" stroke-linejoin="round"/>
</svg>
